<svg version="1.0" xmlns="http://www.w3.org/2000/svg" viewBox="0 0 100.000000 100.000000" preserveAspectRatio="xMidYMid meet">
<g transform="translate(0.000000,100.000000) scale(0.100000,-0.100000)" fill="#000000" stroke="none">
<path d="M102 887 c-67 -68 -78 -92 -37 -85 21 4 25 1 25 -19 0 -35 60 -93 95
-93 38 0 115 77 115 115 0 35 -58 95 -93 95 -20 0 -23 4 -19 25 7 41 -19 30
-86 -38z m135 -49 c30 -28 29 -36 -9 -75 -38 -39 -44 -40 -75 -11 -30 28 -29
46 4 80 32 34 49 35 80 6z"/>
<path d="M812 925 c4 -21 1 -25 -19 -25 -35 0 -93 -60 -93 -96 0 -40 74 -114
113 -114 37 0 97 57 97 93 0 20 4 23 25 19 41 -7 30 19 -38 86 -68 67 -92 78
-85 37z m31 -93 c33 -34 34 -49 5 -79 -28 -30 -36 -29 -75 9 -39 38 -40 44
-11 75 28 30 48 29 81 -5z"/>
<path d="M403 782 c-251 -90 -272 -432 -35 -549 81 -40 183 -40 264 0 107 53
163 144 163 267 0 85 -21 142 -74 203 -72 81 -213 117 -318 79z m212 -50 c47
-24 95 -73 121 -122 26 -49 26 -171 0 -220 -26 -49 -74 -98 -121 -123 -31 -17
-58 -22 -115 -22 -85 0 -133 20 -186 77 -54 57 -69 95 -69 178 0 83 15 121 69
178 31 34 70 58 116 73 41 14 142 3 185 -19z"/>
<path d="M127 272 c-25 -26 -37 -47 -37 -66 0 -25 -2 -27 -15 -16 -12 10 -19
10 -28 1 -8 -8 4 -27 53 -76 35 -36 70 -65 77 -65 16 0 17 22 1 38 -9 9 -4 12
24 12 29 0 42 7 67 35 43 50 40 78 -13 131 -55 55 -80 56 -129 6z m100 -34
c39 -38 40 -44 11 -75 -28 -30 -48 -29 -81 5 -33 34 -34 49 -5 79 28 30 36 29
75 -9z"/>
<path d="M744 266 c-53 -53 -56 -81 -13 -131 25 -28 38 -35 67 -35 28 0 33 -3
24 -12 -16 -16 -15 -38 1 -38 7 0 42 29 77 65 49 49 61 68 53 76 -9 9 -16 9
-28 -1 -13 -11 -15 -8 -15 17 0 36 -64 103 -99 103 -15 0 -41 -17 -67 -44z
m103 -18 c30 -28 29 -46 -4 -80 -32 -34 -49 -35 -80 -6 -30 28 -29 36 9 75 38
39 44 40 75 11z"/>
</g>
</svg>
